<svg viewBox="0 0 211.61 45.14" width="100" xmlns="http://www.w3.org/2000/svg" xml:space="preserve"
    class="hidden md:inline">
    <path
        d="M0 24.57c2.03.74 3.8 1.97 5.66 3.01 7.46 4.18 14.89 8.42 22.33 12.64.17.09.32.2.64.39-2.26 1.26-4.48 2.32-6.5 3.68-1.75 1.17-3.11 1.08-4.9-.01-5.24-3.16-10.62-6.1-15.95-9.12-.41-.22-.77-.55-1.28-.57V24.57zm0-13.12c2.27-1.31 4.54-2.63 6.81-3.93.36-.2.68-.54 1.19-.25 2.92 1.69 5.84 3.37 8.99 5.18-1.51.85-2.83 1.6-4.15 2.35-.87.49-1.7 1.05-2.62 1.43-.98.4-1.2 1.05-1.18 2.03.06 2.53.02 5.06.02 7.95-1.8-1.02-3.22-1.86-4.68-2.63-1.46-.78-2.77-1.84-4.38-2.35v-9.78zM182.39 0c.78.59 1.79.51 2.64.94 1.88.96 2.64 2.56 2.76 4.63.11 2.02-.47 3.56-2.02 4.71-1.81 1.35-3.93 1.64-6.13 1.29-2.81-.44-4.68-2.07-5.18-4.42-.64-3 1.16-5.89 4.14-6.67.4-.11.89-.03 1.15-.48h2.64zm-16.77 22.85c1.59.77 3.17 1.59 4.31 3.04 3.14 4.01 2.52 10.83-3.6 13.44-2.76 1.18-5.67 1.6-8.61 1.64-6.39.09-12.78.03-19.16.07-.95.01-1.21-.27-1.21-1.21.03-10.81.03-21.62 0-32.42 0-.93.24-1.23 1.2-1.22 5.87.04 11.74-.04 17.61.02 2.78.03 5.54.32 8.19 1.35 3.28 1.28 5.45 3.48 5.77 7.03.29 3.25-1.08 5.85-3.84 7.67-.24.16-.54.22-.66.59zm-12.21 9.85c.64 0 1.28.01 1.91 0 .64-.01 1.28.01 1.91-.05 1.69-.16 2.65-1.18 2.62-2.75-.03-1.42-1.11-2.46-2.76-2.49-2.43-.05-4.86 0-7.29-.03-.64-.01-.83.22-.81.83.03 1.23.03 2.46 0 3.69-.02.62.21.84.83.82 1.19-.04 2.39-.02 3.59-.02zm-.72-13.16v-.02c.91 0 1.83.03 2.74-.01 1.73-.07 2.78-1.07 2.77-2.57-.01-1.46-1.03-2.37-2.77-2.41-1.87-.04-3.74 0-5.61-.04-.6-.01-.86.16-.84.8.04 1.15.03 2.3 0 3.44-.02.62.23.84.84.81.96-.03 1.92 0 2.87 0z"
        fill="#c09711"></path>
    <path class="fill-current dark:text-white text-dark"
        d="M45.18 22.74c0-5.4.01-10.8-.01-16.21 0-.67 0-1.08.91-1.07 6.3.07 12.63-.22 18.91.17 7.38.46 13.09 5.14 12.89 13.46-.13 5.49-3.77 9.93-9.29 11.63-3.45 1.06-6.95.93-10.47.9-.96-.01-1.19.26-1.16 1.18.07 2.14 0 4.29.04 6.43.01.68-.19.87-.87.87-3.31.02-6.61.06-9.91.16-.87.03-1.06-.27-1.06-1.08.04-5.48.02-10.96.02-16.44zm11.81-4.27c0 1.07.04 2.14-.02 3.21-.04.66.22.78.81.77 1.43-.02 2.87.11 4.29.04 1.69-.08 3.67-1.14 3.87-3.27.23-2.49-.77-3.99-2.96-4.51-1.82-.43-3.64-.12-5.46-.23-.53-.03-.56.26-.56.66.04 1.11.03 2.22.03 3.33zm57.28 10.62c.74 1.74 1.97 2.55 3.52 2.88 2.41.52 4.71.2 6.73-1.25.69-.49 1.06-.35 1.58.19 1.49 1.55 3 3.08 4.57 4.55.63.59.46.89-.07 1.37-2.43 2.22-5.35 3.25-8.57 3.56-4.42.42-8.72.06-12.62-2.31-4.97-3.02-7.12-7.54-6.52-13.2.57-5.45 3.67-9.22 8.74-11.26 4.44-1.78 8.98-1.74 13.42.03 5.5 2.19 8.55 7.29 8.21 13.5-.11 1.95-.11 1.95-2.11 1.95h-15.57c-.37-.01-.76-.01-1.31-.01zm8.37-5.46c-.57-2.29-1.95-3.5-4.04-3.53-2.37-.03-3.73 1.11-4.33 2.82-.16.44-.27.73.41.72 2.62-.02 5.25-.01 7.96-.01z">
    </path>
    <path
        d="M198.67 7.62c1.52 0 3.03.04 4.55-.02.77-.03 1.06.19 1.03.99-.05 1.75.06 3.5-.05 5.24-.07 1.16.37 1.45 1.43 1.37 1.07-.08 2.16.03 3.23-.05.72-.05 1.03.13 1.02.88-.02 2.18-.01 4.37.01 6.55.01.61-.24.85-.85.85-1.24-.02-2.48.04-3.71-.01-.79-.03-1.15.15-1.12 1.05.07 1.82.01 3.65.03 5.48.03 2.34 1.55 3.45 3.75 2.57 1.07-.43 1.33-.07 1.61.81.58 1.84 1.22 3.66 1.87 5.48.3.84.12 1.33-.77 1.61-4.17 1.31-8.34 1.41-12.38-.32-3.05-1.31-4.61-3.87-5.15-7.09-.46-2.76-.19-5.55-.21-8.32-.01-.91-.19-1.23-1.17-1.21-2.59.06-2.59.01-2.59-2.55 0-1.59.02-3.18-.01-4.77-.01-.71.26-.95.99-.97 2.75-.07 2.75-.1 2.75-2.82 0-1.31.03-2.62 0-3.93-.01-.61.2-.85.83-.83 1.63.03 3.27.01 4.91.01z"
        fill="#c09711"></path>
    <path class="fill-current dark:text-white text-dark"
        d="M92.59 15.77c1.91-2.01 4.11-2.88 6.55-3.24.08-.01.16-.04.23-.05 2.01-.31 2.01-.31 2.01 1.66 0 2.42-.01 4.85.01 7.27.01.63.03 1.01-.87.87-1.24-.19-2.51-.19-3.75.24-2.34.81-3.51 2.19-3.55 4.64-.07 3.93-.06 7.87-.01 11.81.01.9-.22 1.14-1.12 1.12-3.11-.06-6.23-.04-9.35 0-.72.01-.95-.16-.95-.92.03-8.43.03-16.86 0-25.28 0-.9.34-1.02 1.11-1.01 2.84.04 5.67.07 8.51-.01 1.04-.03 1.34.31 1.2 1.26-.07.44-.02.91-.02 1.64z">
    </path>
    <path
        d="M175.46 27.29c0-4.17.02-8.35-.02-12.52-.01-.84.25-1.09 1.08-1.08 3.08.03 6.15.02 9.23-.02.83-.01 1.14.26 1.14 1.09-.02 8.39-.02 16.78 0 25.16 0 .76-.22 1.05-1.02 1.05a307.4 307.4 0 0 0-9.11.03c-.98.02-1.33-.29-1.32-1.3.05-4.14.02-8.28.02-12.41zM10.19 5.63c3.08-1.77 6.02-3.44 8.93-5.15.55-.32.9-.05 1.31.18 4.77 2.74 9.53 5.48 14.3 8.22 1.24.71 2.47 1.47 3.74 2.12.64.32.82.73.81 1.4-.03 2.82 0 5.64 0 8.46 0 1.3-.07 1.34-1.19.7-4.02-2.28-8.04-4.56-12.06-6.85-5.09-2.89-10.18-5.79-15.27-8.68-.14-.07-.25-.17-.57-.4zm11.95 28.11c1.96-1.12 3.68-2.31 5.56-3.12 2.02-.86 2.77-2.08 2.52-4.26-.22-1.96-.05-3.96-.05-6.19 1.26.71 2.39 1.35 3.51 1.98 1.63.92 3.25 1.87 4.9 2.75.54.29.71.63.71 1.22-.03 2.62-.02 5.25 0 7.87 0 .48-.1.8-.56 1.05-2.18 1.17-4.33 2.38-6.49 3.57-.34.19-.65.44-1.1.19-2.94-1.67-5.89-3.31-9-5.06z"
        fill="#c09711"></path>
</svg>